<?xml version="1.0" encoding="UTF-8"?>
<svg id="Layer_2" xmlns="http://www.w3.org/2000/svg" xmlns:xlink="http://www.w3.org/1999/xlink" version="1.1" viewBox="0 0 72 72">
  <!-- Generator: Adobe Illustrator 29.6.1, SVG Export Plug-In . SVG Version: 2.1.1 Build 9)  -->
  <defs>
    <style>
      .st0 {
        fill: #8c62b5;
      }

      .st1 {
        fill: #a07dd1;
      }

      .st2 {
        clip-path: url(#clippath-1);
      }

      .st3 {
        fill: #fff;
      }

      .st4 {
        fill: #5b2876;
      }

      .st5 {
        clip-path: url(#clippath);
      }
    </style>
    <clipPath id="clippath">
      <path class="st1" d="M57.93,30.02h-16.51c-.75,0-1.35.6-1.35,1.35v18.96c0,.75.6,1.35,1.35,1.35h18.24c.4,0,.78-.18,1.04-.49l5.52-6.63c.36-.44.42-1.06.13-1.55l-7.25-12.34c-.24-.41-.69-.67-1.16-.67Z"/>
    </clipPath>
    <clipPath id="clippath-1">
      <path class="st1" d="M46.28,51.68H9.49c-.67,0-1.22-.57-1.22-1.27l2.47-30.45c0-.7.55-1.27,1.22-1.27h36.78c.67,0,1.22.57,1.22,1.27l-2.47,30.45c0,.7-.55,1.27-1.22,1.27Z"/>
    </clipPath>
  </defs>
  <g id="Layer_3">
    <g>
      <path class="st1" d="M57.93,30.02h-16.51c-.75,0-1.35.6-1.35,1.35v18.96c0,.75.6,1.35,1.35,1.35h18.24c.4,0,.78-.18,1.04-.49l5.52-6.63c.36-.44.42-1.06.13-1.55l-7.25-12.34c-.24-.41-.69-.67-1.16-.67Z"/>
      <g class="st5">
        <path class="st0" d="M48.29,27.4l4.55,15.82c.38,1.32,3.1,2.38,4.4,2.83l9.29,3.27-4.75,5.15-25.63-.64,12.14-26.44Z"/>
      </g>
    </g>
    <path class="st3" d="M57.07,36.87h-6.15c-.2,0-.36-.14-.36-.31l.23-4.31c0-.17.16-.31.36-.31h3.91c.13,0,1.79.06,1.86.15l2.16,4.23c.12.24-.03.53-.28.53h-1.73Z"/>
    <path class="st4" d="M10.51,45.14l-4.43-2.36c-.47-.25-.72-.79-.59-1.31l5.25-21.51"/>
  </g>
  <g>
    <path class="st1" d="M46.28,51.68H9.49c-.67,0-1.22-.57-1.22-1.27l2.47-30.45c0-.7.55-1.27,1.22-1.27h36.78c.67,0,1.22.57,1.22,1.27l-2.47,30.45c0,.7-.55,1.27-1.22,1.27Z"/>
    <g class="st2">
      <path class="st4" d="M10.28,13.21s12.31,19.34,12.03,22.02c-.35,3.33-16.24,23.94-16.24,23.94L10.28,13.21Z"/>
      <rect class="st4" x="5.67" y="48.35" width="44.31" height="5.49"/>
    </g>
  </g>
  <circle class="st4" cx="21.09" cy="51.68" r="5.37"/>
  <circle class="st4" cx="53.69" cy="51.68" r="5.37"/>
</svg>