<?xml version="1.0" encoding="UTF-8"?>
<svg id="Layer_2" xmlns="http://www.w3.org/2000/svg" version="1.1" viewBox="0 0 72 72">
  <!-- Generator: Adobe Illustrator 29.6.1, SVG Export Plug-In . SVG Version: 2.1.1 Build 9)  -->
  <defs>
    <style>
      .st0 {
        fill: #a37ed0;
      }

      .st1 {
        stroke: #582d73;
        stroke-linecap: round;
        stroke-width: 2.03px;
      }

      .st1, .st2, .st3 {
        fill: none;
        stroke-miterlimit: 10;
      }

      .st2 {
        stroke-width: 1.6px;
      }

      .st2, .st3 {
        stroke: #5b2774;
      }

      .st3 {
        stroke-width: 1.56px;
      }
    </style>
  </defs>
  <path class="st3" d="M57.63,30.3c1.02-3.83-3.41-21.76-21.48-21.76S13.96,26.29,14.67,30.3"/>
  <path class="st2" d="M58.77,50.75v4.48s.57,4.92-3.48,4.92-12.63.14-12.63.14"/>
  <rect class="st0" x="33.19" y="57.13" width="10.27" height="6.33" rx="1.93" ry="1.93"/>
  <g>
    <path class="st0" d="M16.73,29.44s-5.77-.22-6.14,0c-.48.3-3.43,6.19-3.43,11.37,0,4.81,2.99,11.11,3.43,11.37s6.14,0,6.14,0l.9.82v-24.58l-.9,1.03Z"/>
    <line class="st1" x1="18.46" y1="52.51" x2="18.46" y2="29.1"/>
  </g>
  <g>
    <path class="st0" d="M55.27,29.54s5.77-.22,6.14,0c.48.3,3.43,6.19,3.43,11.37,0,4.81-2.99,11.11-3.43,11.37s-6.14,0-6.14,0l-.9.82v-24.58l.9,1.03Z"/>
    <line class="st1" x1="53.54" y1="52.62" x2="53.54" y2="29.2"/>
  </g>
</svg>