<?xml version="1.0" encoding="UTF-8"?>
<svg id="Layer_1" xmlns="http://www.w3.org/2000/svg" version="1.1" viewBox="0 0 72 72">
  <!-- Generator: Adobe Illustrator 29.6.1, SVG Export Plug-In . SVG Version: 2.1.1 Build 9)  -->
  <defs>
    <style>
      .st0 {
        fill: #712199;
      }

      .st0, .st1 {
        display: none;
      }

      .st1 {
        stroke: #fff;
        stroke-linecap: round;
        stroke-width: 1.79px;
      }

      .st1, .st2, .st3 {
        fill: none;
        stroke-miterlimit: 10;
      }

      .st4 {
        fill: #fff;
      }

      .st2 {
        stroke: #00aeef;
      }

      .st3 {
        stroke: #712199;
        stroke-width: .9px;
      }
    </style>
  </defs>
  <path class="st0" d="M37.66,24.49l.42.57c.82,1.13,2.24,1.64,3.59,1.31l.69-.17c1.35-.34,2.64.74,2.54,2.13l-.05.71c-.1,1.39.66,2.7,1.91,3.31l.64.31c1.25.61,1.54,2.27.58,3.27l-.49.51c-.97,1-1.23,2.49-.66,3.76l.29.65c.57,1.27-.27,2.73-1.66,2.87l-.7.07c-1.39.15-2.54,1.12-2.93,2.46l-.2.68c-.38,1.34-1.96,1.91-3.12,1.14l-.59-.4c-1.15-.78-2.67-.78-3.82,0l-.59.4c-1.16.78-2.73.2-3.12-1.14l-.2-.68c-.38-1.34-1.54-2.31-2.93-2.46l-.7-.07c-1.39-.15-2.23-1.6-1.66-2.87l.29-.65c.57-1.27.3-2.76-.66-3.76l-.49-.51c-.97-1-.68-2.66.58-3.27l.64-.31c1.25-.61,2.01-1.92,1.91-3.31l-.05-.71c-.1-1.39,1.19-2.47,2.54-2.13l.69.17c1.35.34,2.77-.18,3.59-1.31l.42-.57c.82-1.13,2.5-1.13,3.32,0Z"/>
  <polyline class="st1" points="30.61 36.68 34.45 41.95 40.49 30.92"/>
  <circle class="st4" cx="36" cy="36.35" r="12.6"/>
  <path class="st2" d="M29.96,38.65"/>
  <path class="st3" d="M29.1,32.14c.24-.39.55-.75.93-1.05,1.81-1.47,4.47-.75,5.94,1.06l.02.03.02-.03c1.47-1.81,4.13-2.53,5.94-1.06,1.02.83,1.61,2.11,1.57,3.42-.07,2.33-2.32,4.17-3.86,5.66-.29.28-3.64,3.54-3.67,3.51l-5.44-5.45c-1.66-1.67-2.87-3.81-1.45-6.09Z"/>
  <path class="st2" d="M41.68,39.1"/>
</svg>