<?xml version="1.0" encoding="UTF-8"?>
<svg id="Layer_1" xmlns="http://www.w3.org/2000/svg" version="1.1" viewBox="0 0 72 72">
  <!-- Generator: Adobe Illustrator 29.6.1, SVG Export Plug-In . SVG Version: 2.1.1 Build 9)  -->
  <defs>
    <style>
      .st0 {
        fill: #fff;
        stroke: #231f20;
        stroke-miterlimit: 10;
        stroke-width: 3.6px;
      }
    </style>
  </defs>
  <g>
    <path class="st0" d="M63.98,36c0-15.45-12.53-27.98-27.98-27.98s-27.98,12.53-27.98,27.98c0,10.23,5.49,19.17,13.69,24.05v-12.16c0-6.6,5.4-12,12-12h4.59c6.6,0,12,5.4,12,12v12.16c8.19-4.88,13.69-13.82,13.69-24.05Z"/>
    <path class="st0" d="M50.29,60.05c-4.18,2.49-9.07,3.93-14.29,3.93s-10.11-1.44-14.29-3.93"/>
    <path class="st0" d="M38.29,35.89h-4.59c-6.6,0-12,5.4-12,12v12.16c4.18,2.49,9.07,3.93,14.29,3.93s10.11-1.44,14.29-3.93v-12.16c0-6.6-5.4-12-12-12Z"/>
  </g>
  <circle class="st0" cx="36" cy="26.79" r="9.16"/>
</svg>