<?xml version="1.0" encoding="UTF-8"?>
<svg id="Layer_1" xmlns="http://www.w3.org/2000/svg" xmlns:xlink="http://www.w3.org/1999/xlink" version="1.1" viewBox="0 0 2808 323.68">
  <!-- Generator: Adobe Illustrator 29.6.1, SVG Export Plug-In . SVG Version: 2.1.1 Build 9)  -->
  <defs>
    <style>
      .st0, .st1, .st2 {
        fill: none;
      }

      .st1 {
        stroke-miterlimit: 10;
      }

      .st1, .st2 {
        stroke: #6a268e;
        stroke-linecap: round;
        stroke-width: 1.96px;
      }

      .st3 {
        fill: #f6f6f6;
      }

      .st4 {
        display: none;
        fill: #808285;
      }

      .st5 {
        font-family: SofiaPro-Light, 'Sofia Pro';
        font-size: 45.27px;
        font-weight: 300;
      }

      .st5, .st6 {
        fill: #fff;
      }

      .st2 {
        stroke-linejoin: round;
      }

      .st7 {
        clip-path: url(#clippath-1);
      }

      .st8 {
        fill: #702b99;
      }

      .st9 {
        fill: #d7facf;
      }

      .st10 {
        fill: #d03732;
      }

      .st11 {
        fill: #8d68a9;
      }

      .st6 {
        font-size: 104.01px;
      }

      .st6, .st12 {
        font-family: SofiaPro-Bold, 'Sofia Pro';
        font-weight: 700;
      }

      .st12 {
        font-size: 99px;
      }

      .st13 {
        fill: #f0f1f1;
      }

      .st14 {
        fill: #152956;
      }

      .st15 {
        clip-path: url(#clippath);
      }
    </style>
    <clipPath id="clippath">
      <rect class="st0" x="48.78" y="0" width="323.68" height="323.68"/>
    </clipPath>
    <clipPath id="clippath-1">
      <rect class="st0" x="2142.69" y="123.81" width="554.37" height="76.06"/>
    </clipPath>
  </defs>
  <rect class="st3" x="1913.22" y="0" width="894.78" height="323.68"/>
  <polygon class="st8" points="1940.06 323.68 0 323.68 0 0 2071.48 0 1940.06 323.68"/>
  <g class="st15">
    <text class="st12" transform="translate(86.67 45.06)"><tspan class="st11"><tspan x="0" y="0">new.</tspan></tspan><tspan class="st11"><tspan x="0" y="69">new.</tspan></tspan><tspan class="st11"><tspan x="0" y="138">new.</tspan></tspan><tspan class="st11"><tspan x="0" y="207">new.</tspan></tspan><tspan class="st9"><tspan x="0" y="276">new.</tspan></tspan></text>
  </g>
  <text class="st6" transform="translate(558.01 141.7)"><tspan x="0" y="0">new from</tspan><tspan x="-37.44" y="93.5">top brands</tspan></text>
  <g>
    <text class="st5" transform="translate(1241.94 173.67)"><tspan x="0" y="0">Level up your dorm room</tspan></text>
    <g>
      <circle class="st13" cx="1801.67" cy="160.46" r="24.12"/>
      <g>
        <path class="st1" d="M1808.5,160.5"/>
        <line class="st1" x1="1801.69" y1="154.04" x2="1808.5" y2="160.42"/>
        <polyline class="st2" points="1801.69 166.87 1808.5 160.5 1794.85 160.5"/>
      </g>
    </g>
  </g>
  <rect class="st4" x="2031.74" y="0" width="776.26" height="323.68"/>
  <g class="st7">
    <g>
      <path class="st14" d="M2261.53,144.17v-20.36h-76.98c-2.27,0-4.34,1.28-5.37,3.3l-36.49,72.49h28.22l1.95-3.88v-30.55h8.91v12.86l13.19-26.2,24.05,47.77h28.22l-12.21-24.25h26.51v-20.36h-36.76l-5.45-10.83h42.22-.01Z"/>
      <path class="st10" d="M2194.69,169.97l14.93,29.63h9.39l-24.05-47.76-13.19,26.19v-12.85h-8.9v30.54l-1.96,3.88h8.86l14.92-29.63Z"/>
      <path class="st14" d="M2311.98,158.01h-16.66l-3.28,7.71h-6.38l14.99-33.31h6.09l15.04,33.31h-6.47l-3.33-7.71ZM2309.93,153.16l-6.28-14.56-6.24,14.56h12.52Z"/>
      <path class="st14" d="M2364.4,142.81c1.87,1.86,2.81,4.64,2.81,8.35v14.56h-5.95v-13.8c0-2.22-.49-3.89-1.48-5.02-.99-1.13-2.4-1.69-4.24-1.69-2,0-3.6.66-4.81,1.97-1.21,1.32-1.81,3.2-1.81,5.64v12.9h-5.95v-13.8c0-2.22-.49-3.89-1.48-5.02-.99-1.13-2.4-1.69-4.24-1.69-2.03,0-3.64.65-4.83,1.95-1.19,1.3-1.78,3.19-1.78,5.66v12.9h-5.95v-25.41h5.66v3.24c.95-1.14,2.14-2.02,3.57-2.62,1.43-.6,3.01-.9,4.76-.9,1.9,0,3.59.36,5.07,1.07,1.48.71,2.64,1.77,3.5,3.17,1.05-1.33,2.39-2.37,4.05-3.12,1.65-.74,3.47-1.12,5.47-1.12,3.2,0,5.74.93,7.61,2.78h.02Z"/>
      <path class="st14" d="M2397.46,154.92h-19.94c.35,1.87,1.26,3.35,2.74,4.45,1.48,1.1,3.31,1.64,5.5,1.64,2.79,0,5.09-.92,6.9-2.76l3.19,3.66c-1.14,1.37-2.59,2.4-4.33,3.09-1.74.7-3.71,1.05-5.9,1.05-2.79,0-5.25-.56-7.38-1.67-2.13-1.11-3.77-2.66-4.93-4.64-1.16-1.98-1.74-4.23-1.74-6.73s.56-4.7,1.69-6.69c1.13-1.98,2.69-3.53,4.69-4.64,2-1.11,4.25-1.67,6.76-1.67s4.69.55,6.64,1.64,3.47,2.64,4.57,4.62c1.09,1.99,1.64,4.28,1.64,6.88,0,.41-.03,1-.09,1.76h0ZM2379.88,146.47c-1.32,1.13-2.12,2.63-2.4,4.5h14.42c-.25-1.84-1.03-3.33-2.33-4.47-1.3-1.14-2.92-1.71-4.86-1.71s-3.51.56-4.83,1.69h0Z"/>
      <path class="st14" d="M2416.84,140.03v5.66c-.51-.09-.97-.14-1.38-.14-2.32,0-4.12.67-5.43,2.02s-1.95,3.29-1.95,5.83v12.32h-5.95v-25.41h5.66v3.71c1.71-2.66,4.73-4,9.04-4h0Z"/>
      <path class="st14" d="M2420.74,135.1c-.73-.68-1.09-1.53-1.09-2.55s.36-1.86,1.09-2.54c.73-.68,1.63-1.02,2.71-1.02s1.98.32,2.71.97,1.09,1.47,1.09,2.45c0,1.05-.36,1.93-1.07,2.64-.71.71-1.63,1.07-2.74,1.07s-1.98-.34-2.71-1.02h0ZM2420.45,140.31h5.95v25.41h-5.95v-25.41Z"/>
      <path class="st14" d="M2437.56,164.39c-2.09-1.11-3.73-2.66-4.9-4.64s-1.76-4.23-1.76-6.73.59-4.74,1.76-6.71,2.8-3.51,4.88-4.62c2.08-1.11,4.45-1.67,7.11-1.67,2.51,0,4.7.51,6.59,1.52,1.89,1.02,3.31,2.47,4.26,4.38l-4.57,2.67c-.73-1.17-1.64-2.05-2.74-2.64-1.09-.59-2.29-.88-3.59-.88-2.22,0-4.06.72-5.52,2.17-1.46,1.44-2.19,3.37-2.19,5.78s.72,4.34,2.16,5.78c1.44,1.44,3.29,2.17,5.54,2.17,1.3,0,2.5-.29,3.59-.88s2.01-1.47,2.74-2.64l4.57,2.67c-.98,1.9-2.42,3.37-4.31,4.4-1.89,1.03-4.07,1.55-6.54,1.55-2.63,0-5-.56-7.09-1.67h.01Z"/>
      <path class="st14" d="M2478.2,142.71c1.98,1.79,2.97,4.5,2.97,8.11v14.9h-5.62v-3.09c-.73,1.11-1.77,1.96-3.12,2.54-1.35.59-2.97.88-4.88.88s-3.57-.33-5-.98c-1.43-.65-2.53-1.55-3.31-2.71s-1.17-2.47-1.17-3.93c0-2.28.85-4.12,2.55-5.5,1.7-1.38,4.37-2.07,8.02-2.07h6.57v-.38c0-1.78-.53-3.14-1.59-4.09s-2.64-1.43-4.73-1.43c-1.43,0-2.83.22-4.21.67-1.38.45-2.55,1.06-3.5,1.86l-2.33-4.33c1.33-1.02,2.93-1.79,4.81-2.33,1.87-.54,3.85-.81,5.95-.81,3.74,0,6.61.9,8.59,2.69ZM2472.77,160.7c1.16-.68,1.98-1.66,2.45-2.93v-2.95h-6.14c-3.43,0-5.14,1.13-5.14,3.38,0,1.08.43,1.94,1.29,2.57.86.63,2.05.95,3.57.95s2.82-.34,3.97-1.02Z"/>
      <path class="st14" d="M2509.61,142.83c1.93,1.87,2.9,4.65,2.9,8.33v14.56h-5.95v-13.8c0-2.22-.52-3.89-1.57-5.02-1.05-1.13-2.54-1.69-4.47-1.69-2.19,0-3.92.66-5.19,1.97-1.27,1.31-1.9,3.21-1.9,5.69v12.85h-5.95v-25.41h5.66v3.28c.98-1.17,2.22-2.06,3.71-2.67,1.49-.6,3.17-.9,5.04-.9,3.2,0,5.77.93,7.71,2.81h.01Z"/>
      <path class="st14" d="M2538.54,137.6v10.14h16.09v5.23h-16.09v12.75h-6.19v-33.31h24.32v5.19h-18.13Z"/>
      <path class="st14" d="M2574.37,140.03v5.66c-.51-.09-.97-.14-1.38-.14-2.32,0-4.12.67-5.43,2.02s-1.95,3.29-1.95,5.83v12.32h-5.95v-25.41h5.66v3.71c1.71-2.66,4.73-4,9.04-4h0Z"/>
      <path class="st14" d="M2601.97,154.92h-19.94c.35,1.87,1.26,3.35,2.74,4.45,1.48,1.1,3.31,1.64,5.5,1.64,2.79,0,5.09-.92,6.9-2.76l3.19,3.66c-1.14,1.37-2.59,2.4-4.33,3.09-1.74.7-3.71,1.05-5.9,1.05-2.79,0-5.25-.56-7.38-1.67s-3.77-2.66-4.93-4.64-1.74-4.23-1.74-6.73.56-4.7,1.69-6.69c1.13-1.98,2.69-3.53,4.69-4.64,2-1.11,4.25-1.67,6.76-1.67s4.69.55,6.64,1.64c1.95,1.09,3.47,2.64,4.57,4.62,1.09,1.99,1.64,4.28,1.64,6.88,0,.41-.03,1-.09,1.76h-.01ZM2584.39,146.47c-1.32,1.13-2.12,2.63-2.4,4.5h14.42c-.25-1.84-1.03-3.33-2.33-4.47-1.3-1.14-2.92-1.71-4.86-1.71s-3.51.56-4.83,1.69h0Z"/>
      <path class="st14" d="M2606.82,135.1c-.73-.68-1.09-1.53-1.09-2.55s.36-1.86,1.09-2.54c.73-.68,1.63-1.02,2.71-1.02s1.98.32,2.71.97c.73.65,1.09,1.47,1.09,2.45,0,1.05-.36,1.93-1.07,2.64-.71.71-1.63,1.07-2.74,1.07s-1.98-.34-2.71-1.02h.01ZM2606.53,140.31h5.95v25.41h-5.95v-25.41Z"/>
      <path class="st14" d="M2644.3,140.31v21.56c0,8.95-4.57,13.42-13.71,13.42-2.44,0-4.76-.31-6.95-.93s-4-1.52-5.43-2.69l2.67-4.47c1.11.92,2.51,1.66,4.21,2.21,1.7.55,3.42.83,5.16.83,2.79,0,4.84-.63,6.14-1.9,1.3-1.27,1.95-3.2,1.95-5.8v-1.33c-1.02,1.11-2.25,1.95-3.71,2.52-1.46.57-3.06.86-4.81.86-2.41,0-4.59-.51-6.54-1.55-1.95-1.04-3.49-2.48-4.62-4.35-1.13-1.87-1.69-4.01-1.69-6.42s.56-4.54,1.69-6.4c1.13-1.86,2.66-3.29,4.62-4.31s4.13-1.52,6.54-1.52c1.84,0,3.51.3,5.02.9,1.51.6,2.77,1.52,3.78,2.76v-3.38h5.68ZM2636.28,157.51c1.44-1.35,2.17-3.1,2.17-5.26s-.72-3.85-2.17-5.19c-1.45-1.34-3.29-2-5.54-2s-4.15.67-5.59,2-2.16,3.06-2.16,5.19.72,3.91,2.16,5.26c1.44,1.35,3.31,2.02,5.59,2.02s4.1-.67,5.54-2.02Z"/>
      <path class="st14" d="M2672.91,142.83c1.93,1.87,2.9,4.65,2.9,8.33v14.56h-5.95v-13.8c0-2.22-.52-3.89-1.57-5.02-1.05-1.13-2.54-1.69-4.47-1.69-2.19,0-3.92.66-5.19,1.97-1.27,1.31-1.9,3.21-1.9,5.69v12.85h-5.95v-35.31h5.95v12.85c.98-1.05,2.2-1.85,3.64-2.4,1.44-.56,3.05-.83,4.83-.83,3.2,0,5.77.93,7.71,2.81h0Z"/>
      <path class="st14" d="M2697.06,164.34c-.7.57-1.55,1-2.55,1.29-1,.28-2.05.43-3.17.43-2.79,0-4.95-.73-6.47-2.19-1.52-1.46-2.28-3.59-2.28-6.38v-12.23h-4.19v-4.76h4.19v-5.8h5.95v5.8h6.81v4.76h-6.81v12.09c0,1.24.3,2.18.9,2.83.6.65,1.47.97,2.62.97,1.33,0,2.44-.35,3.33-1.05l1.67,4.23h0Z"/>
      <path class="st10" d="M2298.89,195.77h-8.29l-1.63,3.84h-3.17l7.46-16.58h3.03l7.49,16.58h-3.22l-1.66-3.84h-.01ZM2297.87,193.35l-3.13-7.25-3.1,7.25h6.23Z"/>
      <path class="st10" d="M2316.28,183.73c1.07.47,1.88,1.15,2.45,2.04.57.88.85,1.93.85,3.15s-.28,2.25-.85,3.14c-.57.89-1.39,1.58-2.45,2.05-1.07.47-2.32.71-3.76.71h-3.74v4.78h-3.08v-16.58h6.82c1.44,0,2.69.24,3.76.71ZM2315.44,191.36c.7-.57,1.04-1.38,1.04-2.44s-.35-1.87-1.04-2.44c-.69-.57-1.71-.85-3.06-.85h-3.6v6.59h3.6c1.34,0,2.36-.28,3.06-.85h0Z"/>
      <path class="st10" d="M2332.91,183.73c1.07.47,1.88,1.15,2.45,2.04.57.88.85,1.93.85,3.15s-.28,2.25-.85,3.14c-.57.89-1.39,1.58-2.45,2.05-1.07.47-2.32.71-3.76.71h-3.74v4.78h-3.08v-16.58h6.82c1.44,0,2.69.24,3.76.71ZM2332.07,191.36c.7-.57,1.04-1.38,1.04-2.44s-.35-1.87-1.04-2.44c-.69-.57-1.71-.85-3.06-.85h-3.6v6.59h3.6c1.34,0,2.36-.28,3.06-.85h0Z"/>
      <path class="st10" d="M2338.97,183.02h3.08v13.98h8.67v2.61h-11.75v-16.58h0Z"/>
      <path class="st10" d="M2352.84,183.02h3.08v16.58h-3.08v-16.58Z"/>
      <path class="st10" d="M2370.97,195.77h-8.29l-1.63,3.84h-3.17l7.46-16.58h3.03l7.49,16.58h-3.22l-1.66-3.84h0ZM2369.95,193.35l-3.13-7.25-3.1,7.25h6.23Z"/>
      <path class="st10" d="M2392.52,183.02v16.58h-2.54l-9.14-11.23v11.23h-3.06v-16.58h2.53l9.15,11.23v-11.23h3.06Z"/>
      <path class="st10" d="M2399.88,198.74c-1.35-.73-2.41-1.75-3.18-3.04-.77-1.29-1.15-2.76-1.15-4.38s.39-3.09,1.16-4.38c.77-1.3,1.84-2.31,3.19-3.04,1.35-.74,2.86-1.1,4.54-1.1,1.36,0,2.6.24,3.72.71,1.12.47,2.07,1.16,2.84,2.06l-1.99,1.87c-1.2-1.3-2.68-1.94-4.43-1.94-1.14,0-2.16.25-3.06.75-.9.5-1.6,1.19-2.11,2.07-.51.88-.76,1.89-.76,3.01s.25,2.12.76,3.01,1.21,1.58,2.11,2.07c.9.5,1.92.75,3.06.75,1.75,0,3.23-.65,4.43-1.97l1.99,1.89c-.77.9-1.73,1.59-2.86,2.06-1.13.47-2.37.71-3.73.71-1.68,0-3.19-.37-4.54-1.1h.01Z"/>
      <path class="st10" d="M2425.96,197.02v2.58h-12.44v-16.58h12.11v2.58h-9.03v4.31h8.01v2.54h-8.01v4.57h9.36Z"/>
      <path class="st10" d="M2430.69,199.3c-1.19-.36-2.14-.84-2.83-1.45l1.07-2.39c.68.54,1.51.98,2.5,1.31.99.34,1.98.51,2.97.51,1.23,0,2.15-.2,2.76-.59.61-.39.91-.91.91-1.56,0-.47-.17-.87-.51-1.17-.34-.31-.77-.55-1.29-.72-.52-.17-1.23-.37-2.13-.59-1.26-.3-2.29-.6-3.07-.9-.78-.3-1.45-.77-2.01-1.41s-.84-1.5-.84-2.59c0-.92.25-1.75.75-2.5s1.25-1.34,2.25-1.79c1-.44,2.23-.66,3.68-.66,1.01,0,2.01.12,2.99.38.98.25,1.82.62,2.53,1.09l-.97,2.39c-.73-.43-1.49-.75-2.28-.97-.79-.22-1.56-.33-2.3-.33-1.22,0-2.12.2-2.71.62-.59.41-.89.96-.89,1.63,0,.47.17.86.51,1.16.34.3.77.54,1.29.71.52.17,1.23.37,2.13.59,1.23.28,2.24.58,3.03.89.79.31,1.46.78,2.03,1.41.57.63.84,1.48.84,2.56,0,.92-.25,1.75-.75,2.49s-1.25,1.33-2.26,1.78c-1.01.45-2.24.66-3.7.66-1.28,0-2.51-.18-3.71-.54v-.02Z"/>
      <path class="st10" d="M2462.42,199.87l-2.08-2.02c-1.55,1.33-3.4,1.99-5.57,1.99-1.15,0-2.19-.19-3.1-.57-.92-.38-1.63-.9-2.16-1.58-.52-.67-.78-1.43-.78-2.29,0-1.03.3-1.93.9-2.71.6-.78,1.58-1.55,2.94-2.31-.66-.66-1.14-1.28-1.42-1.86s-.43-1.17-.43-1.79c0-1.17.44-2.11,1.32-2.83s2.04-1.08,3.49-1.08c1.34,0,2.42.33,3.22.98.81.65,1.21,1.54,1.21,2.67,0,.85-.26,1.61-.79,2.27-.53.66-1.39,1.33-2.59,2.01l3.58,3.41c.39-.77.7-1.71.92-2.79l2.39.78c-.32,1.47-.81,2.73-1.49,3.79l2.08,1.99-1.63,1.92v.02ZM2458.58,196.17l-4.38-4.19c-.95.52-1.62,1.02-2,1.5-.39.48-.58,1.02-.58,1.62,0,.7.31,1.26.92,1.68.62.43,1.43.64,2.44.64,1.37,0,2.58-.42,3.6-1.26h0ZM2453.98,185.43c-.38.32-.57.75-.57,1.27,0,.38.1.74.31,1.08.2.34.6.8,1.18,1.39.95-.52,1.61-.97,1.98-1.36s.56-.81.56-1.27c0-.49-.17-.88-.51-1.16s-.81-.43-1.41-.43c-.65,0-1.16.16-1.54.49h0Z"/>
      <path class="st10" d="M2475.62,185.6v5.05h8.01v2.61h-8.01v6.35h-3.08v-16.58h12.11v2.58h-9.03Z"/>
      <path class="st10" d="M2488.88,197.91c-1.28-1.29-1.92-3.13-1.92-5.53v-9.36h3.08v9.24c0,3.25,1.41,4.88,4.22,4.88s4.19-1.63,4.19-4.88v-9.24h3.03v9.36c0,2.4-.64,4.25-1.91,5.53-1.27,1.28-3.05,1.93-5.34,1.93s-4.08-.64-5.35-1.93Z"/>
      <path class="st10" d="M2516.31,199.6l-3.39-4.86c-.14.02-.36.02-.64.02h-3.74v4.83h-3.08v-16.58h6.82c1.44,0,2.69.24,3.76.71s1.88,1.15,2.45,2.04c.57.88.85,1.93.85,3.15s-.3,2.32-.91,3.22c-.61.9-1.48,1.57-2.62,2.02l3.81,5.45h-3.32.01ZM2515.2,186.47c-.7-.57-1.71-.85-3.06-.85h-3.6v6.61h3.6c1.34,0,2.36-.29,3.06-.86.7-.58,1.04-1.4,1.04-2.45s-.35-1.87-1.04-2.44h0Z"/>
      <path class="st10" d="M2537.26,183.02v16.58h-2.54l-9.14-11.23v11.23h-3.06v-16.58h2.53l9.15,11.23v-11.23h3.06Z"/>
      <path class="st10" d="M2541.36,183.02h3.08v16.58h-3.08v-16.58Z"/>
      <path class="st10" d="M2551.99,185.62h-5.5v-2.61h14.07v2.61h-5.5v13.98h-3.08v-13.98h0Z"/>
      <path class="st10" d="M2564.47,197.91c-1.28-1.29-1.92-3.13-1.92-5.53v-9.36h3.08v9.24c0,3.25,1.41,4.88,4.22,4.88s4.19-1.63,4.19-4.88v-9.24h3.03v9.36c0,2.4-.64,4.25-1.91,5.53s-3.05,1.93-5.34,1.93-4.08-.64-5.35-1.93Z"/>
      <path class="st10" d="M2591.9,199.6l-3.39-4.86c-.14.02-.36.02-.64.02h-3.74v4.83h-3.08v-16.58h6.82c1.44,0,2.69.24,3.76.71s1.88,1.15,2.45,2.04c.57.88.85,1.93.85,3.15s-.3,2.32-.91,3.22c-.61.9-1.48,1.57-2.62,2.02l3.81,5.45h-3.32,0ZM2590.79,186.47c-.7-.57-1.71-.85-3.06-.85h-3.6v6.61h3.6c1.34,0,2.36-.29,3.06-.86.7-.58,1.04-1.4,1.04-2.45s-.35-1.87-1.04-2.44h0Z"/>
      <path class="st10" d="M2610.55,197.02v2.58h-12.44v-16.58h12.11v2.58h-9.03v4.31h8.01v2.54h-8.01v4.57h9.36Z"/>
    </g>
  </g>
</svg>