<?xml version="1.0" encoding="UTF-8"?>
<svg id="Layer_1" xmlns="http://www.w3.org/2000/svg" xmlns:xlink="http://www.w3.org/1999/xlink" version="1.1" viewBox="0 0 2808 323.68">
  <!-- Generator: Adobe Illustrator 29.6.1, SVG Export Plug-In . SVG Version: 2.1.1 Build 9)  -->
  <defs>
    <style>
      .st0, .st1, .st2 {
        fill: none;
      }

      .st1 {
        stroke-miterlimit: 10;
      }

      .st1, .st2 {
        stroke: #6a268e;
        stroke-linecap: round;
        stroke-width: 1.96px;
      }

      .st3 {
        fill: #f6f6f6;
      }

      .st4 {
        display: none;
        fill: #808285;
      }

      .st5 {
        font-family: SofiaPro-Light, 'Sofia Pro';
        font-size: 45.27px;
        font-weight: 300;
      }

      .st5, .st6 {
        fill: #fff;
      }

      .st2 {
        stroke-linejoin: round;
      }

      .st7 {
        fill: #702b99;
      }

      .st8 {
        fill: #d7facf;
      }

      .st9 {
        fill: #8d68a9;
      }

      .st6 {
        font-size: 104.01px;
      }

      .st6, .st10 {
        font-family: SofiaPro-Bold, 'Sofia Pro';
        font-weight: 700;
      }

      .st10 {
        font-size: 99px;
      }

      .st11 {
        fill: #f0f1f1;
      }

      .st12 {
        fill: #e33122;
      }

      .st13 {
        clip-path: url(#clippath);
      }
    </style>
    <clipPath id="clippath">
      <rect class="st0" x="48.78" y="0" width="323.68" height="323.68"/>
    </clipPath>
  </defs>
  <rect class="st3" x="1913.22" y="0" width="894.78" height="323.68"/>
  <polygon class="st7" points="1940.06 323.68 0 323.68 0 0 2071.48 0 1940.06 323.68"/>
  <g class="st13">
    <text class="st10" transform="translate(86.67 45.06)"><tspan class="st9"><tspan x="0" y="0">new.</tspan></tspan><tspan class="st9"><tspan x="0" y="69">new.</tspan></tspan><tspan class="st8"><tspan x="0" y="138">new.</tspan></tspan><tspan class="st9"><tspan x="0" y="207">new.</tspan></tspan><tspan class="st9"><tspan x="0" y="276">new.</tspan></tspan></text>
  </g>
  <text class="st6" transform="translate(558.01 141.7)"><tspan x="0" y="0">new from</tspan><tspan x="-37.44" y="93.5">top brands</tspan></text>
  <g>
    <text class="st5" transform="translate(1241.94 173.67)"><tspan x="0" y="0">Level up your dorm room</tspan></text>
    <g>
      <circle class="st11" cx="1801.67" cy="160.46" r="24.12"/>
      <g>
        <path class="st1" d="M1808.5,160.5"/>
        <line class="st1" x1="1801.69" y1="154.04" x2="1808.5" y2="160.42"/>
        <polyline class="st2" points="1801.69 166.87 1808.5 160.5 1794.85 160.5"/>
      </g>
    </g>
  </g>
  <rect class="st4" x="2031.74" y="0" width="776.26" height="323.68"/>
  <g>
    <path d="M2229.37,110.11c-28.54,0-51.73,23.19-51.73,51.73s23.19,51.73,51.73,51.73,51.73-23.19,51.73-51.73-23.19-51.73-51.73-51.73ZM2229.37,208.38c-25.69,0-46.54-20.91-46.54-46.54s20.85-46.54,46.54-46.54,46.54,20.91,46.54,46.54-20.85,46.54-46.54,46.54Z"/>
    <path d="M2247.82,128.68c-.17-.11-.4-.17-.63-.17-.68,0-1.2.51-1.2,1.2v16.18c0,.57-.46,1.03-1.03,1.03h-31.33c-.57,0-.97-.46-1.03-1.03v-16.18c0-.23-.06-.4-.17-.63-.34-.57-1.08-.74-1.65-.4-11.56,7.12-18.57,19.48-18.57,33.16s7.01,26.03,18.69,33.16c.17.11.4.17.63.17.68,0,1.2-.51,1.2-1.2v-16.18c0-.57.46-.97,1.03-1.03h31.33c.57,0,1.03.46,1.03,1.03v16.18c0,.23.06.4.17.63.34.57,1.08.74,1.65.4,11.68-7.12,18.69-19.48,18.69-33.16s-7.12-26.03-18.8-33.16h0ZM2206.69,182.12l.17,1.94-1.25-1.54c-9.63-12.13-9.63-29.28,0-41.42l1.08-1.37.17-.17-.17,1.99c-.17,1.6-.23,3.25-.23,4.9v30.71c0,1.65.11,3.3.23,4.96ZM2246,169.59c0,.57-.46,1.03-1.03,1.03h-31.33c-.57,0-.97-.46-1.03-1.03v-15.5c0-.57.46-1.03,1.03-1.03h31.33c.57,0,1.03.46,1.03,1.03v15.5ZM2253.07,182.52l-1.25,1.54.17-1.94c.17-1.6.23-3.25.23-4.9v-30.76c0-1.65-.06-3.3-.23-4.9l-.06-.85-.06-.91v-.23l1.2,1.54c4.67,5.81,7.24,13.22,7.24,20.68s-2.56,14.93-7.24,20.74Z"/>
    <path class="st12" d="M2359.14,160.93c-.28-.11-.63-.23-.63-.57,0-.23.11-.4.34-.51.4-.17,10.25-3.7,10.25-15.32,0-12.93-8.72-20.62-23.41-20.62h-35.61v76h38.85c11.34,0,23.53-8.03,23.53-20.96s-9.34-16.69-13.33-18h0ZM2328.04,139.45c0-.28.23-.51.51-.51h14.13c4.67,0,7.86,3.13,7.86,7.8,0,3.65-2.85,7.58-8.2,7.58h-13.79c-.28,0-.51-.23-.51-.51v-14.36ZM2342.68,184.91h-14.13c-.28,0-.51-.23-.51-.51v-15.15c0-.28.23-.51.51-.51h13.79c6.78,0,10.65,2.91,10.65,8.03s-3.59,8.15-10.31,8.15h0ZM2492.73,154.15l-2.73-.57c-6.15-1.31-12.13-2.96-12.13-8.26s4.96-7.69,9.86-7.69c5.75,0,11.45,2.56,15.78,7.01l11.28-11.17c-4.84-5.36-13.44-11.51-27.35-11.51-16.75,0-28.03,9.51-28.03,23.7,0,14.98,11.79,20.62,21.71,22.73l2.68.57c9.63,2.05,14.19,3.59,14.19,9.06,0,4.9-4.39,8.15-10.88,8.15-7.63,0-14.41-3.36-19.54-9.68l-11.56,11.34c6.15,7.29,14.3,13.9,31.33,13.9,14.53,0,29.28-8.43,29.28-24.61-.06-16.58-11.34-20.34-23.87-22.96h0ZM2642.85,123.9v27.8c0,.28-.23.51-.51.51h-23.36c-.28,0-.51-.23-.51-.51v-27.8h-19.14v76h19.14v-29.85c0-.28.23-.51.51-.51h23.36c.28,0,.51.23.51.51v29.85h19.26v-76h-19.26ZM2560.81,184.34c-8.6,0-17.89-7.18-17.89-22.96,0-14.41,8.72-21.93,17.32-21.93,6.27,0,10.65,2.62,14.13,8.43l14.7-9.74c-7.52-11.05-16.46-16.07-28.94-16.07-24.44,0-35.38,19.77-35.38,39.31,0,23.76,14.47,40.33,35.15,40.33,15.38,0,22.39-5.64,29.74-16.07l-14.81-9.97c-3.3,5.36-6.89,8.66-14.01,8.66h0ZM2415.48,121.96c-20.91,0-34.92,16.01-34.92,39.88s14.01,39.88,34.92,39.88,34.92-16.01,34.92-39.88-14.01-39.88-34.92-39.88h0ZM2415.48,184.34c-10.25,0-16.86-8.83-16.86-22.5s6.61-22.39,16.86-22.39,16.98,8.77,16.98,22.39-6.67,22.5-16.98,22.5Z"/>
  </g>
</svg>