<?xml version="1.0" encoding="UTF-8"?>
<svg id="Layer_1" xmlns="http://www.w3.org/2000/svg" xmlns:xlink="http://www.w3.org/1999/xlink" version="1.1" viewBox="0 0 2808 323.68">
  <!-- Generator: Adobe Illustrator 29.6.1, SVG Export Plug-In . SVG Version: 2.1.1 Build 9)  -->
  <defs>
    <style>
      .st0, .st1, .st2 {
        fill: none;
      }

      .st3 {
        fill: #ea5344;
      }

      .st1 {
        stroke-miterlimit: 10;
      }

      .st1, .st2 {
        stroke: #6a268e;
        stroke-linecap: round;
        stroke-width: 1.96px;
      }

      .st4 {
        fill: #f6f6f6;
      }

      .st5 {
        display: none;
        fill: #808285;
      }

      .st6 {
        font-family: SofiaPro-Light, 'Sofia Pro';
        font-size: 45.27px;
        font-weight: 300;
      }

      .st6, .st7 {
        fill: #fff;
      }

      .st2 {
        stroke-linejoin: round;
      }

      .st8 {
        fill: #702b99;
      }

      .st9 {
        fill: #d7facf;
      }

      .st10 {
        fill: #8d68a9;
      }

      .st7 {
        font-size: 104.01px;
      }

      .st7, .st11 {
        font-family: SofiaPro-Bold, 'Sofia Pro';
        font-weight: 700;
      }

      .st11 {
        font-size: 99px;
      }

      .st12 {
        fill: #f0f1f1;
      }

      .st13 {
        fill: #4b4b4b;
      }

      .st14 {
        clip-path: url(#clippath);
      }
    </style>
    <clipPath id="clippath">
      <rect class="st0" x="48.78" y="0" width="323.68" height="323.68"/>
    </clipPath>
  </defs>
  <rect class="st4" x="1913.22" y="0" width="894.78" height="323.68"/>
  <polygon class="st8" points="1940.06 323.68 0 323.68 0 0 2071.48 0 1940.06 323.68"/>
  <g class="st14">
    <text class="st11" transform="translate(86.67 45.06)"><tspan class="st10"><tspan x="0" y="0">new.</tspan></tspan><tspan class="st9"><tspan x="0" y="69">new.</tspan></tspan><tspan class="st10"><tspan x="0" y="138">new.</tspan></tspan><tspan class="st10"><tspan x="0" y="207">new.</tspan></tspan><tspan class="st10"><tspan x="0" y="276">new.</tspan></tspan></text>
  </g>
  <text class="st7" transform="translate(558.01 141.7)"><tspan x="0" y="0">new from</tspan><tspan x="-37.44" y="93.5">top brands</tspan></text>
  <g>
    <text class="st6" transform="translate(1241.94 173.67)"><tspan x="0" y="0">Level up your dorm room</tspan></text>
    <g>
      <circle class="st12" cx="1801.67" cy="160.46" r="24.12"/>
      <g>
        <path class="st1" d="M1808.5,160.5"/>
        <line class="st1" x1="1801.69" y1="154.04" x2="1808.5" y2="160.42"/>
        <polyline class="st2" points="1801.69 166.87 1808.5 160.5 1794.85 160.5"/>
      </g>
    </g>
  </g>
  <rect class="st5" x="2031.74" y="0" width="776.26" height="323.68"/>
  <g>
    <path class="st13" d="M2582.89,138.2h9.26v58.56h-9.26v-58.56ZM2582.89,128.67h9.26v-9.26h-9.26v9.26ZM2563.28,146.37v35.41c0,1.91-.27,5.72,1.63,7.35,1.09,1.09,2.72,1.36,4.9,1.36,1.91,0,7.08-1.09,7.08-1.09v7.35h-.27c-3.54,1.36-6.26,1.36-8.44,1.36-14.71,0-14.16-9.53-14.16-18.79v-52.84c0-5.45,5.18-6.81,8.99-6.81h.54v18.79h13.62v8.17h-13.89v-.27ZM2545.85,154.27v42.49h-.54c-2.72,0-4.63-.27-5.99-1.09-2.45-1.63-3-4.09-3-8.44v-31.32s.27-5.99-1.36-8.17c-1.36-2.18-3.81-3.81-7.63-3.81-4.09,0-10.35,3.27-14.71,5.72v47.12h-9.26v-61.01h.54c4.36,0,7.63,1.91,8.44,5.18,4.63-2.72,10.9-5.18,16.07-5.18,17.43,0,17.43,14.71,17.43,18.52M2424.63,135.75c-6.54,0-11.44,2.72-14.16,5.45v-19.07c0-4.09-3.81-6.81-8.99-6.81h-.54v55.29c0,18.25,7.35,27.24,22.34,27.24s23.97-10.35,23.97-32.14c0-20.43-7.63-29.96-22.61-29.96M2423.27,189.96c-8.17,0-12.8-3.81-12.8-20.7v-6.81c0-5.45,0-8.17,1.09-10.9,1.36-3.54,6.54-7.9,12.53-7.9,9.26,0,14.16,6.54,14.16,22.06-.27,16.89-4.63,24.24-14.98,24.24M2372.61,135.75c-13.62,0-20.7,10.62-20.7,10.62,0,0,2.45,2.45,5.72,2.45,1.36,0,2.72-.27,4.63-1.63,3-2.18,6.26-3.54,10.35-3.54,9.81,0,11.17,7.9,10.9,10.62v.54s-7.08,1.63-14.16,4.09c-10.08,3.27-20.97,8.72-20.97,21.52,0,5.72,3,17.71,19.61,17.71,7.08,0,11.99-3,15.53-6.81.54,4.09,2.72,5.72,8.44,5.72h.54v-42.76c.27-14.71-11.71-18.52-19.88-18.52M2383.78,171.43c0,11.17-4.36,18.52-15.25,18.52-7.35,0-11.17-3.54-11.17-9.81,0-4.09,2.45-7.35,7.35-10.35,5.45-3.27,19.07-6.81,19.07-6.81v8.44ZM2475.03,135.75c-13.62,0-20.7,10.62-20.7,10.62,0,0,2.45,2.45,5.72,2.45,1.36,0,2.72-.27,4.63-1.63,3-2.18,6.26-3.54,10.35-3.54,9.81,0,11.17,7.9,10.9,10.62v.54s-7.08,1.63-14.16,4.09c-10.08,3.27-20.97,8.72-20.97,21.52,0,5.72,3,17.71,19.61,17.71,7.08,0,11.99-3,15.53-6.81.54,4.09,2.72,5.72,8.44,5.72h.54v-42.76c.27-14.71-11.71-18.52-19.88-18.52M2485.92,171.43c0,11.17-4.36,18.52-15.25,18.52-7.35,0-11.17-3.54-11.17-9.81,0-4.09,2.45-7.35,7.35-10.35,5.45-3.27,19.07-6.81,19.07-6.81v8.44ZM2622.39,135.75c-13.62,0-20.7,10.62-20.7,10.62,0,0,2.45,2.45,5.72,2.45,1.36,0,2.72-.27,4.63-1.63,3-2.18,6.26-3.54,10.35-3.54,9.81,0,11.17,7.9,10.9,10.62v.54s-7.08,1.63-14.16,4.09c-10.08,3.27-20.97,8.72-20.97,21.52,0,5.72,3,17.71,19.61,17.71,7.08,0,11.99-3,15.53-6.81.54,4.09,2.72,5.72,8.44,5.72h.54v-42.76c.27-14.71-11.71-18.52-19.88-18.52M2633.28,171.43c0,11.17-4.36,18.52-15.25,18.52-7.35,0-11.17-3.54-11.17-9.81,0-4.09,2.45-7.35,7.35-10.35,5.45-3.27,19.07-6.81,19.07-6.81v8.44ZM2344.55,144.19c-5.45.82-7.63,3.54-7.63,10.9v41.68h-9.26v-42.49c0-7.08,2.18-12.53,6.81-15.53,2.72-1.63,6.81-3,11.99-3,4.36,0,6.81,1.09,6.81,1.09,0,0-3,6.81-8.72,7.35M2299.06,135.75c-6.54,0-11.44,2.72-14.16,5.45v-19.07c0-4.09-3.81-6.81-8.99-6.81h-.54v55.29c0,18.25,7.35,27.24,22.34,27.24s23.97-10.35,23.97-32.14c0-20.43-7.63-29.96-22.61-29.96M2297.7,189.96c-8.17,0-12.8-3.81-12.8-20.7v-6.81c0-5.45,0-8.17,1.09-10.9,1.36-3.54,6.54-7.63,12.53-7.63,9.26,0,14.16,6.26,14.16,22.06-.27,16.62-4.63,23.97-14.98,23.97"/>
    <path class="st3" d="M2262.29,149.64c-.27-.27-19.88-23.7-19.88-23.7,0,0-23.7,22.34-23.7,22.61-1.63,1.63-2.18,2.72-2.18,4.9v22.06c0,1.36,1.09,2.72,2.72,2.72h22.88c.82,0,1.36-.27,1.91-.82s.82-1.09.82-1.91v-19.61h-7.35c-.82,0-1.09.27-1.36.54s-.54.82-.54,1.36v10.9h-9.26v-11.99c0-1.91.27-2.45,1.09-3.27l.27-.27.27-.27c1.63-2.45,13.35-13.35,13.35-13.35l12.53,14.71v30.78c0,1.09-1.09,2.18-2.18,2.18h-42.49c-1.09,0-2.18-1.09-2.18-2.18v-35.41c0-3,.82-4.09,1.91-5.18l.82-.82c1.36-1.36,26.42-25.06,26.42-25.06-1.63-1.91-3.81-3-6.26-3s-4.9.82-6.81,2.45l-22.34,21.25c-2.72,2.72-3.27,4.63-3.27,7.08v43.31c0,3.81,3.27,7.08,7.08,7.08h51.75c3.81,0,7.08-3.27,7.08-7.08v-36.5c0-2.18-.82-3.27-1.09-3.54"/>
  </g>
</svg>