<?xml version="1.0" encoding="UTF-8"?>
<svg id="Layer_1" xmlns="http://www.w3.org/2000/svg" xmlns:xlink="http://www.w3.org/1999/xlink" version="1.1" viewBox="0 0 2808 323.68">
  <!-- Generator: Adobe Illustrator 29.6.1, SVG Export Plug-In . SVG Version: 2.1.1 Build 9)  -->
  <defs>
    <style>
      .st0, .st1, .st2 {
        fill: none;
      }

      .st1 {
        stroke-miterlimit: 10;
      }

      .st1, .st2 {
        stroke: #6a268e;
        stroke-linecap: round;
        stroke-width: 1.96px;
      }

      .st3 {
        fill-rule: evenodd;
      }

      .st3, .st4 {
        fill: #a53833;
      }

      .st5 {
        fill: #f6f6f6;
      }

      .st6 {
        display: none;
        fill: #808285;
      }

      .st7 {
        font-family: SofiaPro-Light, 'Sofia Pro';
        font-size: 45.27px;
        font-weight: 300;
      }

      .st7, .st8 {
        fill: #fff;
      }

      .st2 {
        stroke-linejoin: round;
      }

      .st9 {
        fill: #702b99;
      }

      .st10 {
        fill: #d7facf;
      }

      .st11 {
        fill: #8d68a9;
      }

      .st8 {
        font-size: 104.01px;
      }

      .st8, .st12 {
        font-family: SofiaPro-Bold, 'Sofia Pro';
        font-weight: 700;
      }

      .st12 {
        font-size: 99px;
      }

      .st13 {
        fill: #f0f1f1;
      }

      .st14 {
        clip-path: url(#clippath);
      }
    </style>
    <clipPath id="clippath">
      <rect class="st0" x="48.78" y="0" width="323.68" height="323.68"/>
    </clipPath>
  </defs>
  <rect class="st5" x="1913.22" y="0" width="894.78" height="323.68"/>
  <polygon class="st9" points="1940.06 323.68 0 323.68 0 0 2071.48 0 1940.06 323.68"/>
  <g class="st14">
    <text class="st12" transform="translate(86.67 45.06)"><tspan class="st11"><tspan x="0" y="0">new.</tspan></tspan><tspan class="st11"><tspan x="0" y="69">new.</tspan></tspan><tspan class="st11"><tspan x="0" y="138">new.</tspan></tspan><tspan class="st10"><tspan x="0" y="207">new.</tspan></tspan><tspan class="st11"><tspan x="0" y="276">new.</tspan></tspan></text>
  </g>
  <text class="st8" transform="translate(558.01 141.7)"><tspan x="0" y="0">new from</tspan><tspan x="-37.44" y="93.5">top brands</tspan></text>
  <g>
    <text class="st7" transform="translate(1241.94 173.67)"><tspan x="0" y="0">Level up your dorm room</tspan></text>
    <g>
      <circle class="st13" cx="1801.67" cy="160.46" r="24.12"/>
      <g>
        <path class="st1" d="M1808.5,160.5"/>
        <line class="st1" x1="1801.69" y1="154.04" x2="1808.5" y2="160.42"/>
        <polyline class="st2" points="1801.69 166.87 1808.5 160.5 1794.85 160.5"/>
      </g>
    </g>
  </g>
  <rect class="st6" x="2031.74" y="0" width="776.26" height="323.68"/>
  <g>
    <path id="path3033" class="st4" d="M2158.49,154.6l16.93-18.67h-19.19l-13.72,18.15c-1.3,1.56-3.82,2.69-5.73,2.69h-3.21v-20.84h-26.39v49.97h26.31v-15.33h4.17c1.91,0,2.86.52,3.91,2.43l7.38,12.9h31.78l-14.76-25.05c-1.22-2.08-4.52-3.82-7.99-3.82-.87,0-1.74.09.52-2.43"/>
    <path id="path3035" class="st4" d="M2189.23,185.86h24.84v-28.99h-24.84v28.99Z"/>
    <path id="path3039" class="st4" d="M2202.05,154.42c6.87-.49,12.21-4.06,11.94-7.98-.28-3.92-6.07-6.71-12.94-6.23-6.87.49-12.21,4.06-11.94,7.97.28,3.92,6.07,6.71,12.93,6.24"/>
    <path id="path3043" class="st4" d="M2223.78,156.68h8.34v-9.72h23.44v9.72h9.73v9.55h-9.38v5.73c0,5.73,6.6,5.38,9.55,2.78v8.15c-9.03,3.99-23.87,5.04-29.86.95-3.13-2.17-3.47-3.91-3.47-6.51v-10.94h-8.34"/>
    <path id="path3047" class="st4" d="M2322.49,158.34c-12.85-6.43-30.35-5.3-38.98-.61-13.85,7.51-13.64,19.77-.18,26.73,9.72,5.04,32.81,3.65,39.07-2.08v-8.07c-9.2,4.69-15.6,4.01-19.45,2.69-5.99-2.04-6.13-10.5,1.56-11.98,4.95-.95,11.2-.87,17.97,2.69"/>
    <path id="path3051" class="st4" d="M2330.83,140.11v45.75h23.35v-14.07c.35-8.86,11.46-7.21,11.46-.69v14.76h23.26v-18.06c0-8.51-15.27-18.06-34.55-8.35l.34-19.35"/>
    <path id="path3055" class="st4" d="M2464.09,156.77v29.08h25.01v-15.63c0-5.39,11.28-7.99,11.28.17v15.28h22.06v-17.71c0-8.31-11.86-19.03-33.34-7.99v-3.21"/>
    <path id="path3057" class="st4" d="M2611.43,185.83h24.83v-28.99h-24.83v28.99Z"/>
    <path id="path3061" class="st4" d="M2624.26,154.39c6.86-.48,12.2-4.05,11.93-7.98-.27-3.92-6.07-6.71-12.94-6.22-6.86.48-12.2,4.05-11.93,7.97.27,3.93,6.06,6.72,12.93,6.23"/>
    <path id="path3073" class="st3" d="M2716.55,148.57v-3.27h2.18c1.11,0,2.3.25,2.3,1.55,0,1.62-1.21,1.72-2.56,1.72h-1.92ZM2718.49,158.37c4.98,0,9.25-3.88,9.25-9.17s-4.26-9.13-9.25-9.13-9.29,3.88-9.29,9.13,4.25,9.17,9.29,9.17M2711.03,149.2c0-4.34,3.27-7.6,7.46-7.6s7.41,3.27,7.41,7.6-3.27,7.65-7.41,7.65-7.46-3.24-7.46-7.65M2716.55,149.92h1.84l2.79,4.57h1.79l-3.01-4.64c1.55-.19,2.74-1.02,2.74-2.91,0-2.08-1.23-3-3.73-3h-4.01v10.55h1.59"/>
    <path id="path3077" class="st3" d="M2423.93,167.29h9.29c.15-2.95-2.36-4.43-5.02-4.43-2.22,0-4.28,1.91-4.28,4.43M2455.59,174.75c-15.8-1.22-32.65-.18-32.65-.18,4.86,7.99,24.66,6.77,31.25,1.56l-.69,6.77c-13.2,7.82-53.48,7.47-54.17-10.76-.61-16.1,23.27-18.41,28.48-18.41,12.33,0,30.39,5.73,27.79,21.01"/>
    <path id="path3081" class="st3" d="M2551.43,165.89l7.29-13.55,5.9,13.55h-13.19ZM2527.9,185.73h13.54l5.82-11.16h21.18l5.04,11.16h32.11l-25-49.7h-31.95c3.13,1.22,4,3.3,3.13,5.03"/>
    <path id="path3085" class="st3" d="M2680.76,167.36c-4.18-3.1-12.2-2.33-12.2,2.64,0,7.13,9.53,5.89,12.2,3.72v-6.35ZM2704.23,140.19v45.5h-23.44v-3.13c-11.63,9.03-37.69,4.17-37.69-10.42,0-17.89,28.3-20.32,37.85-14.07v-17.89"/>
  </g>
</svg>