<?xml version="1.0" encoding="UTF-8"?>
<svg id="Layer_1" xmlns="http://www.w3.org/2000/svg" xmlns:xlink="http://www.w3.org/1999/xlink" version="1.1" viewBox="0 0 2808 323.68">
  <!-- Generator: Adobe Illustrator 29.6.1, SVG Export Plug-In . SVG Version: 2.1.1 Build 9)  -->
  <defs>
    <style>
      .st0, .st1, .st2 {
        fill: none;
      }

      .st1 {
        stroke-miterlimit: 10;
      }

      .st1, .st2 {
        stroke: #6a268e;
        stroke-linecap: round;
        stroke-width: 1.96px;
      }

      .st3 {
        fill: #f6f6f6;
      }

      .st4 {
        display: none;
        fill: #808285;
      }

      .st5 {
        font-family: SofiaPro-Light, 'Sofia Pro';
        font-size: 45.27px;
        font-weight: 300;
      }

      .st5, .st6 {
        fill: #fff;
      }

      .st2 {
        stroke-linejoin: round;
      }

      .st7 {
        fill: #702b99;
      }

      .st8 {
        fill: #d7facf;
      }

      .st9 {
        fill: #e83424;
      }

      .st10 {
        fill: #8d68a9;
      }

      .st6 {
        font-size: 104.01px;
      }

      .st6, .st11 {
        font-family: SofiaPro-Bold, 'Sofia Pro';
        font-weight: 700;
      }

      .st11 {
        font-size: 99px;
      }

      .st12 {
        fill: #f0f1f1;
      }

      .st13 {
        clip-path: url(#clippath);
      }
    </style>
    <clipPath id="clippath">
      <rect class="st0" x="48.78" y="0" width="323.68" height="323.68"/>
    </clipPath>
  </defs>
  <rect class="st3" x="1913.22" y="0" width="894.78" height="323.68"/>
  <polygon class="st7" points="1940.06 323.68 0 323.68 0 0 2071.48 0 1940.06 323.68"/>
  <g class="st13">
    <text class="st11" transform="translate(86.67 45.06)"><tspan class="st8"><tspan x="0" y="0">new.</tspan></tspan><tspan class="st10"><tspan x="0" y="69">new.</tspan></tspan><tspan class="st10"><tspan x="0" y="138">new.</tspan></tspan><tspan class="st10"><tspan x="0" y="207">new.</tspan></tspan><tspan class="st10"><tspan x="0" y="276">new.</tspan></tspan></text>
  </g>
  <text class="st6" transform="translate(558.01 141.7)"><tspan x="0" y="0">new from</tspan><tspan x="-37.44" y="93.5">top brands</tspan></text>
  <g>
    <text class="st5" transform="translate(1241.94 173.67)"><tspan x="0" y="0">Level up your dorm room</tspan></text>
    <g>
      <circle class="st12" cx="1801.67" cy="160.46" r="24.12"/>
      <g>
        <path class="st1" d="M1808.5,160.5"/>
        <line class="st1" x1="1801.69" y1="154.04" x2="1808.5" y2="160.42"/>
        <polyline class="st2" points="1801.69 166.87 1808.5 160.5 1794.85 160.5"/>
      </g>
    </g>
  </g>
  <rect class="st4" x="2031.74" y="0" width="776.26" height="323.68"/>
  <g>
    <path id="path10022" class="st9" d="M2295.48,262.11c-3.87-.63-5.75-2.59-5.91-6.19-.08-1.72.16-3.26.86-5.44.69-2.17,1.63-4.05,6.32-12.72,2.21-4.08,6.97-12.93,10.58-19.67l6.56-12.25,49.37-.08c27.15-.05,70.68-.12,96.73-.16l47.36-.08,4.94,9.22c4.7,8.78,13.62,25.28,15.98,29.59,1.29,2.36,1.99,3.95,2.61,5.95,1,3.23,1.11,6.15.31,8.11-.83,2-2.89,3.38-5.66,3.77-1.53.22-228.71.17-230.06-.05h0Z"/>
    <path id="path10020" d="M2289.35,148.39c-7.96,0-14.42.02-15.83.06l-3.41.09v40.88l23.08-.07c25.11-.08,24.12-.05,26.88-.81,4.42-1.22,7.14-3.83,8.18-7.83.34-1.3.47-3.98.26-5.15-.61-3.34-2.6-6.57-5-8.11-.43-.27-.77-.52-.77-.54s.29-.32.65-.66c1.83-1.77,2.83-4.87,2.7-8.37-.07-1.95-.27-2.79-1.06-4.43-.48-1-.79-1.44-1.61-2.3-.84-.88-1.21-1.16-2.2-1.65-2.33-1.16-.14-1.06-23.55-1.11-2.85,0-5.67,0-8.32-.01h0ZM2278.5,154.75l17.45.03,17.45.03.84.41c1.12.55,1.89,1.32,2.39,2.37.37.78.41.97.4,2.03,0,1.01-.05,1.29-.36,1.99-.69,1.56-2.15,2.62-4.02,2.9-.41.06-8.26.12-17.45.12h-16.69s0-4.95,0-4.95v-4.95h0ZM2302.6,170.9c12.88,0,12.17.06,13.54.82,2.14,1.18,3.49,3.9,3.11,6.28-.19,1.2-.66,2.16-1.47,3.05-.78.85-1.79,1.47-2.89,1.77-.65.18-3.02.21-18.56.29l-17.82.08v-12.28h17.7c2.44,0,4.56,0,6.4,0h0Z"/>
    <path id="path10014" d="M2333.88,168.82v-20.44h8.39v8.82c0,4.85.04,14.05.08,20.44l.08,11.62h-8.56v-20.44h0Z"/>
    <path id="path10012" d="M2362.01,189.04c-3.57-.47-5.66-1.25-7.54-2.8-2.22-1.83-3.54-5.15-3.55-8.86v-1.14h8.34l.14,1.1c.2,1.51.7,2.57,1.66,3.49.86.83,1.74,1.29,3.18,1.7,1.02.28,1.05.28,14.3.28,12.31,0,13.34-.02,14.1-.23,2.49-.7,3.86-2.09,4.33-4.37.35-1.71.14-3.25-.61-4.56-.7-1.21-1.88-2.1-3.6-2.7-.66-.23-1.41-.24-16.48-.24-16.67,0-16.44,0-18.79-.6-2.14-.56-4.08-1.89-5.07-3.49-1-1.61-1.53-4.12-1.54-7.24,0-1.7.03-2.09.3-3,.46-1.58,1.12-2.71,2.29-3.9,1.64-1.68,3.78-2.84,6.63-3.58,2.56-.67,2.87-.68,18.81-.62,16.16.05,15.8.04,18.46.83,4.72,1.41,6.84,4.49,7.12,10.37l.08,1.66h-8.54l-.08-.88c-.19-2.07-.69-3.3-1.75-4.3-.72-.69-1.6-1.11-2.75-1.34-.82-.16-26.53-.16-27.35,0-2.35.46-3.93,1.96-4.29,4.06-.34,1.99.7,4.11,2.47,5.05,1.44.76.54.72,17.56.73,14.46,0,15.69.02,16.79.23,5.01.98,7.88,3.49,8.98,7.86.28,1.11.33,1.57.34,3.43.01,1.67-.04,2.38-.22,3.19-.72,3.24-2.27,5.6-4.8,7.32-1.61,1.09-3.15,1.73-5.55,2.28-1.18.27-1.37.28-17.1.3-8.75.01-16.08,0-16.29-.03h0Z"/>
    <path id="path10010" d="M2420.58,188.93c-2.36-.34-4.26-1-5.79-2-1.04-.68-2.44-2.21-3.02-3.29-.89-1.65-1.46-4.17-1.46-6.39v-1.01s4.18,0,4.18,0h4.18l.14,1.06c.37,2.72,1.88,4.38,4.76,5.22.95.28,1.07.28,13.84.32,14.38.04,14.35.05,16.06-.8,1.24-.61,1.85-1.22,2.38-2.33.55-1.16.74-2.19.66-3.57-.14-2.41-1.53-4.15-4.06-5.08l-.98-.36-14.55.04c-9.74.03-15.17,0-16.41-.1-3.77-.29-6.02-1.11-7.64-2.79-1.88-1.95-2.64-4.62-2.53-8.89.05-1.81.09-2.17.38-3.01.48-1.38,1.04-2.29,2.1-3.41,2.07-2.17,5.48-3.68,9.4-4.16.84-.1,5.58-.13,16.04-.1,13.46.04,14.97.07,16.14.28,5.02.89,7.67,2.87,8.84,6.63.4,1.27.7,3.37.7,4.83v1.12h-8.49l-.09-.97c-.29-3.23-1.71-5.01-4.38-5.53-.51-.1-4.91-.14-13.85-.14-12.7,0-13.14,0-14.09.26-1.67.44-2.81,1.34-3.43,2.71-.29.64-.33.9-.33,2.04,0,1.17.04,1.37.35,2,.7,1.39,1.72,2.23,3.29,2.72.69.21,1.81.23,16.4.23,17.21,0,16.33-.03,18.88.8,4.52,1.47,6.95,4.85,7.2,10.01.13,2.66-.23,4.68-1.21,6.77-1.62,3.47-4.75,5.72-9.36,6.73l-1.35.3-15.85.02c-12.55.02-16.1-.01-17.04-.15h0Z"/>
    <path id="path10008" d="M2481.85,188.91c-3.51-.39-6.61-1.78-8.49-3.8-3.5-3.77-3.96-10.4-1.08-15.5.52-.92,1.76-2.34,2.39-2.75l.44-.28-.65-.37c-1.97-1.12-3.39-3.29-3.94-6.04-.26-1.29-.3-3.89-.08-4.95.64-3.03,2.81-5.24,6.28-6.37,2.25-.74,1.71-.72,23.59-.72h20.14s0,3.12,0,3.12v3.12h-17.9c-11.5,0-18.14.05-18.57.13-2.05.4-3.61,1.94-4,3.96-.5,2.56,1.09,5.03,3.7,5.73.65.17,2.88.2,17.88.2h17.14v6.25h-16.69c-18.15,0-17.49-.02-18.91.73-1.37.72-2.65,2.36-3.05,3.89-.33,1.26-.21,2.91.28,4,.72,1.58,2.09,2.77,3.76,3.25.8.23,1.68.24,18.59.24h17.75l.08.41c.04.22.08,1.63.08,3.12v2.72l-19.14-.02c-10.53-.01-19.34-.04-19.58-.07h0Z"/>
    <path id="path10006" d="M2525.53,180.58c-.05-4.63-.08-17.58-.08-28.77v-20.35h8.36l.08,1.86c.04,1.02.08,13.97.08,28.77v26.92h-8.35l-.08-8.42h0Z"/>
    <path id="path10004" d="M2539.69,168.66c-.05-11.18-.08-24.13-.08-28.77v-8.44h8.35l.08,7.71c.05,4.24.08,17.19.08,28.77v21.06h-8.35l-.08-20.33h0Z"/>
    <path id="path10002" d="M2562.24,131.22c-.78,0-1.54.1-2.21.31-2.16.67-3.69,2.24-4.47,4.57-.3.89-.34,1.22-.34,2.58,0,1.73.11,2.28.76,3.69.81,1.76,2.45,3.1,4.38,3.59.98.25,2.93.25,3.9.01,1.66-.41,3.14-1.45,4.08-2.88,2.46-3.75,1.27-9.19-2.42-11.08-1.02-.52-2.37-.8-3.67-.79h0ZM2562.18,133.16c.34,0,.68.01,1.03.07,2.78.42,4.47,2.46,4.47,5.39,0,2.7-1.45,4.76-3.82,5.41-.89.25-2.36.21-3.25-.08-2.3-.76-3.56-2.83-3.43-5.62.08-1.6.41-2.48,1.29-3.47.96-1.07,2.26-1.66,3.71-1.69h0Z"/>
    <path id="path9998" d="M2559.03,134.71v8.07h1.88v-3.14l.59.04.59.04.8,1.53.8,1.53h1.07c1.25,0,1.24.18.11-1.89l-.8-1.46.48-.08c.61-.1,1.19-.61,1.38-1.2.08-.26.12-.84.1-1.3-.06-1-.32-1.43-1.11-1.84-.52-.28-.7-.29-3.22-.29h-2.67ZM2560.91,136.27h1.26c1.2,0,1.69.11,1.9.44.18.28.09.82-.17,1.07-.22.2-.51.26-1.63.29l-1.37.05v-1.85Z"/>
    <path id="path9994" d="M2333.88,138.29v-6.57h8.39v13.15h-8.39v-6.57Z"/>
    <path id="path9990" class="st9" d="M2350.48,132c.24-.66,25.95-50.06,32.3-62.06,5.41-10.23,7.27-13.47,9.41-16.41.93-1.28,2.64-3.14,3.66-3.98,2.3-1.91,5.21-3.1,8.66-3.57,1.93-.26,6.44-.26,8.4,0,4.25.57,7.43,2.1,10.27,4.92,2.76,2.75,4.76,5.89,10.34,16.3,6.71,12.5,34.18,64.67,34.18,64.91,0,.08-21.83.12-58.65.12-55.8,0-58.65-.01-58.57-.23h0Z"/>
  </g>
</svg>