<?xml version="1.0" encoding="UTF-8"?>
<svg id="Layer_1" xmlns="http://www.w3.org/2000/svg" xmlns:xlink="http://www.w3.org/1999/xlink" version="1.1" viewBox="0 0 923.4 96.03">
  <!-- Generator: Adobe Illustrator 29.6.1, SVG Export Plug-In . SVG Version: 2.1.1 Build 9)  -->
  <defs>
    <style>
      .st0 {
        font-size: 23px;
      }

      .st0, .st1, .st2, .st3 {
        fill: #fff;
      }

      .st0, .st4 {
        font-family: SofiaPro-Medium, 'Sofia Pro';
        font-weight: 500;
      }

      .st5 {
        fill: #e8deff;
      }

      .st6, .st2, .st3 {
        isolation: isolate;
      }

      .st7 {
        fill: url(#linear-gradient);
        opacity: .13;
      }

      .st2 {
        font-family: SofiaPro-Bold, 'Sofia Pro';
        font-size: 35.36px;
        font-weight: 700;
      }

      .st4 {
        font-size: 16px;
      }

      .st4, .st8 {
        fill: #561e88;
      }

      .st3 {
        font-family: SofiaPro-SemiBold, 'Sofia Pro';
        font-size: 24.36px;
        font-weight: 600;
      }
    </style>
    <linearGradient id="linear-gradient" x1="461.7" y1="96.03" x2="461.7" y2="0" gradientUnits="userSpaceOnUse">
      <stop offset="0" stop-color="#561e88"/>
      <stop offset=".31" stop-color="#541e85"/>
      <stop offset=".49" stop-color="#501e7d"/>
      <stop offset=".64" stop-color="#491e6f"/>
      <stop offset=".77" stop-color="#3f1e5b"/>
      <stop offset=".89" stop-color="#331e41"/>
      <stop offset=".99" stop-color="#241e22"/>
      <stop offset="1" stop-color="#231f20"/>
    </linearGradient>
  </defs>
  <rect class="st8" x="0" width="923.4" height="96.03" rx="17.18" ry="17.18"/>
  <rect class="st7" width="923.4" height="96.03" rx="13.03" ry="13.03"/>
  <g>
    <g>
      <g class="st6">
        <text class="st2" transform="translate(90.63 58.92)"><tspan x="0" y="0">wayfair </tspan></text>
        <text class="st3" transform="translate(225.16 58.92)"><tspan x="0" y="0">PROFESSIONAL</tspan></text>
      </g>
      <g>
        <polygon class="st1" points="67.56 58.12 72.34 59.75 74.73 57.37 68.3 50.95 65.92 53.33 67.56 58.12"/>
        <polygon class="st1" points="67.55 42.46 65.92 47.25 68.3 49.63 74.72 43.2 72.33 40.82 67.55 42.46"/>
        <polygon class="st1" points="83.2 42.46 78.42 40.81 76.04 43.2 82.46 49.62 84.84 47.23 83.2 42.46"/>
        <polygon class="st1" points="83.22 58.11 84.85 53.32 82.46 50.94 76.04 57.37 78.43 59.75 83.22 58.11"/>
      </g>
    </g>
    <text class="st0" transform="translate(422.29 44.95)"><tspan x="0" y="0">Unlock Pricing up to</tspan><tspan x="0" y="27">15% off, plus more benefits.</tspan></text>
    <g>
      <rect class="st5" x="720.88" y="27.01" width="136.6" height="42.01" rx="19.89" ry="19.89"/>
      <text class="st4" transform="translate(745.32 53.48)"><tspan x="0" y="0">Join for Free</tspan></text>
    </g>
  </g>
</svg>